<?xml version="1.0" encoding="UTF-8" standalone="no"?>
<!DOCTYPE svg PUBLIC "-//W3C//DTD SVG 1.1//EN"
 "http://www.w3.org/Graphics/SVG/1.1/DTD/svg11.dtd">
<!-- Generated by graphviz version 14.1.3 (20260303.0454)
 -->
<!-- Title: G Pages: 1 -->
<svg width="1518pt" height="785pt"
 viewBox="0.00 0.00 1518.00 785.00" xmlns="http://www.w3.org/2000/svg" xmlns:xlink="http://www.w3.org/1999/xlink">
<g id="graph0" class="graph" transform="scale(1 1) rotate(0) translate(14.4 770.4)">
<title>G</title>
<polygon fill="white" stroke="none" points="-14.4,14.4 -14.4,-770.4 1503.48,-770.4 1503.48,14.4 -14.4,14.4"/>
<g id="clust1" class="cluster">
<title>cluster_services</title>
<path fill="none" stroke="#475569" d="M20,-90C20,-90 1184.52,-90 1184.52,-90 1190.52,-90 1196.52,-96 1196.52,-102 1196.52,-102 1196.52,-736 1196.52,-736 1196.52,-742 1190.52,-748 1184.52,-748 1184.52,-748 20,-748 20,-748 14,-748 8,-742 8,-736 8,-736 8,-102 8,-102 8,-96 14,-90 20,-90"/>
<text xml:space="preserve" text-anchor="middle" x="602.26" y="-732.8" font-family="Times,serif" font-size="14.00">SERVICES</text>
</g>
<g id="clust2" class="cluster">
<title>cluster_external</title>
<path fill="none" stroke="#475569" d="M932.56,-8C932.56,-8 1469.08,-8 1469.08,-8 1475.08,-8 1481.08,-14 1481.08,-20 1481.08,-20 1481.08,-70 1481.08,-70 1481.08,-76 1475.08,-82 1469.08,-82 1469.08,-82 932.56,-82 932.56,-82 926.56,-82 920.56,-76 920.56,-70 920.56,-70 920.56,-20 920.56,-20 920.56,-14 926.56,-8 932.56,-8"/>
<text xml:space="preserve" text-anchor="middle" x="1200.82" y="-66.8" font-family="Times,serif" font-size="14.00">EXTERNAL</text>
</g>
<!-- N3 -->
<g id="node1" class="node">
<title>N3</title>
<path fill="#0f172a" stroke="#334155" d="M1064.34,-499C1064.34,-499 967.53,-499 967.53,-499 961.53,-499 955.53,-493 955.53,-487 955.53,-487 955.53,-475 955.53,-475 955.53,-469 961.53,-463 967.53,-463 967.53,-463 1064.34,-463 1064.34,-463 1070.34,-463 1076.34,-469 1076.34,-475 1076.34,-475 1076.34,-487 1076.34,-487 1076.34,-493 1070.34,-499 1064.34,-499"/>
<text xml:space="preserve" text-anchor="middle" x="1015.94" y="-476.8" font-family="Helvetica,sans-Serif" font-size="14.00" fill="#e2e8f0">API: GET /health</text>
</g>
<!-- N4 -->
<g id="node2" class="node">
<title>N4</title>
<path fill="#0f172a" stroke="#334155" d="M1067.83,-572C1067.83,-572 964.04,-572 964.04,-572 958.04,-572 952.04,-566 952.04,-560 952.04,-560 952.04,-548 952.04,-548 952.04,-542 958.04,-536 964.04,-536 964.04,-536 1067.83,-536 1067.83,-536 1073.83,-536 1079.83,-542 1079.83,-548 1079.83,-548 1079.83,-560 1079.83,-560 1079.83,-566 1073.83,-572 1067.83,-572"/>
<text xml:space="preserve" text-anchor="middle" x="1015.94" y="-549.8" font-family="Helvetica,sans-Serif" font-size="14.00" fill="#e2e8f0">API: GET /sample</text>
</g>
<!-- N5 -->
<g id="node3" class="node">
<title>N5</title>
<path fill="#0f172a" stroke="#334155" d="M722.73,-408C722.73,-408 413.27,-408 413.27,-408 407.27,-408 401.27,-402 401.27,-396 401.27,-396 401.27,-384 401.27,-384 401.27,-378 407.27,-372 413.27,-372 413.27,-372 722.73,-372 722.73,-372 728.73,-372 734.73,-378 734.73,-384 734.73,-384 734.73,-396 734.73,-396 734.73,-402 728.73,-408 722.73,-408"/>
<text xml:space="preserve" text-anchor="middle" x="568" y="-385.8" font-family="Helvetica,sans-Serif" font-size="14.00" fill="#e2e8f0">Batch Job Entrypoint: services/worker_ts/src/inde...</text>
</g>
<!-- N6 -->
<g id="node4" class="node">
<title>N6</title>
<path fill="#0f172a" stroke="#334155" d="M1171.07,-645C1171.07,-645 860.8,-645 860.8,-645 854.8,-645 848.8,-639 848.8,-633 848.8,-633 848.8,-621 848.8,-621 848.8,-615 854.8,-609 860.8,-609 860.8,-609 1171.07,-609 1171.07,-609 1177.07,-609 1183.07,-615 1183.07,-621 1183.07,-621 1183.07,-633 1183.07,-633 1183.07,-639 1177.07,-645 1171.07,-645"/>
<text xml:space="preserve" text-anchor="middle" x="1015.94" y="-622.8" font-family="Helvetica,sans-Serif" font-size="14.00" fill="#e2e8f0">Service Entrypoint: services/api_python/src/app.p...</text>
</g>
<!-- N7 -->
<g id="node5" class="node">
<title>N7</title>
<path fill="#0f172a" stroke="#334155" d="M727.41,-235C727.41,-235 408.59,-235 408.59,-235 402.59,-235 396.59,-229 396.59,-223 396.59,-223 396.59,-211 396.59,-211 396.59,-205 402.59,-199 408.59,-199 408.59,-199 727.41,-199 727.41,-199 733.41,-199 739.41,-205 739.41,-211 739.41,-211 739.41,-223 739.41,-223 739.41,-229 733.41,-235 727.41,-235"/>
<text xml:space="preserve" text-anchor="middle" x="568" y="-212.8" font-family="Helvetica,sans-Serif" font-size="14.00" fill="#e2e8f0">Service Entrypoint: services/ops_go/main.go [go m...</text>
</g>
<!-- N8 -->
<g id="node6" class="node">
<title>N8</title>
<path fill="#0f172a" stroke="#334155" d="M687.34,-604C687.34,-604 448.66,-604 448.66,-604 442.66,-604 436.66,-598 436.66,-592 436.66,-592 436.66,-580 436.66,-580 436.66,-574 442.66,-568 448.66,-568 448.66,-568 687.34,-568 687.34,-568 693.34,-568 699.34,-574 699.34,-580 699.34,-580 699.34,-592 699.34,-592 699.34,-598 693.34,-604 687.34,-604"/>
<text xml:space="preserve" text-anchor="middle" x="568" y="-581.8" font-family="Helvetica,sans-Serif" font-size="14.00" fill="#e2e8f0">Service: services/api_python/src/app.py</text>
</g>
<!-- N8&#45;&gt;N3 -->
<g id="edge6" class="edge">
<title>N8&#45;&gt;N3</title>
<path fill="none" stroke="#94a3b8" stroke-width="1.1" d="M635.99,-567.53C675.12,-556.96 725.51,-543.71 770.57,-533 829.91,-518.89 897.79,-504.6 946.92,-494.57"/>
<polygon fill="#94a3b8" stroke="#94a3b8" stroke-width="1.1" points="947.25,-497 953.62,-493.21 946.27,-492.2 947.25,-497"/>
<text xml:space="preserve" text-anchor="middle" x="791.96" y="-535.8" font-family="Times,serif" font-size="14.00">defines</text>
</g>
<!-- N8&#45;&gt;N4 -->
<g id="edge7" class="edge">
<title>N8&#45;&gt;N4</title>
<path fill="none" stroke="#94a3b8" stroke-width="1.1" d="M684.39,-567.51C712.52,-563.69 742.57,-560.17 770.57,-558 828.44,-553.52 894.23,-552.69 942.96,-552.88"/>
<polygon fill="#94a3b8" stroke="#94a3b8" stroke-width="1.1" points="942.87,-555.33 949.88,-552.92 942.9,-550.43 942.87,-555.33"/>
<text xml:space="preserve" text-anchor="middle" x="791.96" y="-560.8" font-family="Times,serif" font-size="14.00">defines</text>
</g>
<!-- N8&#45;&gt;N6 -->
<g id="edge8" class="edge">
<title>N8&#45;&gt;N6</title>
<path fill="none" stroke="#94a3b8" stroke-width="1.1" d="M699.78,-598.02C743.66,-602.06 793.33,-606.63 840.04,-610.92"/>
<polygon fill="#94a3b8" stroke="#94a3b8" stroke-width="1.1" points="839.56,-613.34 846.76,-611.54 840.01,-608.46 839.56,-613.34"/>
<text xml:space="preserve" text-anchor="middle" x="791.96" y="-610.53" font-family="Times,serif" font-size="14.00">defines</text>
</g>
<!-- N9 -->
<g id="node7" class="node">
<title>N9</title>
<path fill="#0f172a" stroke="#334155" d="M1176.52,-718C1176.52,-718 855.35,-718 855.35,-718 849.35,-718 843.35,-712 843.35,-706 843.35,-706 843.35,-694 843.35,-694 843.35,-688 849.35,-682 855.35,-682 855.35,-682 1176.52,-682 1176.52,-682 1182.52,-682 1188.52,-688 1188.52,-694 1188.52,-694 1188.52,-706 1188.52,-706 1188.52,-712 1182.52,-718 1176.52,-718"/>
<text xml:space="preserve" text-anchor="middle" x="1015.94" y="-695.8" font-family="Helvetica,sans-Serif" font-size="14.00" fill="#e2e8f0">Service: services/api_python/src/generated/module...</text>
</g>
<!-- N8&#45;&gt;N9 -->
<g id="edge1" class="edge">
<title>N8&#45;&gt;N9</title>
<path fill="none" stroke="#94a3b8" stroke-width="1.1" d="M593.78,-604.29C630.29,-630.03 701.67,-675.8 770.57,-694 791.04,-699.4 812.8,-702.93 834.59,-705.11"/>
<polygon fill="#94a3b8" stroke="#94a3b8" stroke-width="1.1" points="834.08,-707.52 841.28,-705.72 834.53,-702.64 834.08,-707.52"/>
</g>
<!-- N8&#45;&gt;N9 -->
<g id="edge3" class="edge">
<title>N8&#45;&gt;N9</title>
<path fill="none" stroke="#64748b" stroke-width="1.1" stroke-dasharray="5,2" d="M629.42,-604.5C684.8,-621.14 769.19,-645.7 843.35,-664 865.72,-669.52 889.87,-674.92 912.78,-679.8"/>
<polygon fill="#64748b" stroke="#64748b" stroke-width="1.1" points="912.18,-682.17 919.53,-681.22 913.19,-677.38 912.18,-682.17"/>
<text xml:space="preserve" text-anchor="middle" x="791.96" y="-657.24" font-family="Times,serif" font-size="14.00">imports</text>
</g>
<!-- N2 -->
<g id="node18" class="node">
<title>N2</title>
<path fill="#475569" stroke="#334155" d="M1091.31,-52C1091.31,-52 940.56,-52 940.56,-52 934.56,-52 928.56,-46 928.56,-40 928.56,-40 928.56,-28 928.56,-28 928.56,-22 934.56,-16 940.56,-16 940.56,-16 1091.31,-16 1091.31,-16 1097.31,-16 1103.31,-22 1103.31,-28 1103.31,-28 1103.31,-40 1103.31,-40 1103.31,-46 1097.31,-52 1091.31,-52"/>
<text xml:space="preserve" text-anchor="middle" x="1015.94" y="-29.8" font-family="Helvetica,sans-Serif" font-size="14.00" fill="#e2e8f0">External Package: fastapi</text>
</g>
<!-- N8&#45;&gt;N2 -->
<g id="edge5" class="edge">
<title>N8&#45;&gt;N2</title>
<path fill="none" stroke="#94a3b8" stroke-width="1.1" d="M636.11,-567.54C672.08,-554.33 714.29,-532.95 740.57,-500 860.14,-350.11 709.6,-218.39 843.35,-81 863.55,-60.25 891.96,-48.4 919.87,-41.71"/>
<polygon fill="#94a3b8" stroke="#94a3b8" stroke-width="1.1" points="920.18,-44.15 926.48,-40.23 919.12,-39.36 920.18,-44.15"/>
<text xml:space="preserve" text-anchor="middle" x="791.96" y="-449.58" font-family="Times,serif" font-size="14.00">uses</text>
</g>
<!-- N1 -->
<g id="node17" class="node">
<title>N1</title>
<path fill="#475569" stroke="#334155" d="M1461.08,-52C1461.08,-52 1284.63,-52 1284.63,-52 1278.63,-52 1272.63,-46 1272.63,-40 1272.63,-40 1272.63,-28 1272.63,-28 1272.63,-22 1278.63,-16 1284.63,-16 1284.63,-16 1461.08,-16 1461.08,-16 1467.08,-16 1473.08,-22 1473.08,-28 1473.08,-28 1473.08,-40 1473.08,-40 1473.08,-46 1467.08,-52 1461.08,-52"/>
<text xml:space="preserve" text-anchor="middle" x="1372.86" y="-29.8" font-family="Helvetica,sans-Serif" font-size="14.00" fill="#e2e8f0">External Package: __future__</text>
</g>
<!-- N9&#45;&gt;N1 -->
<g id="edge12" class="edge">
<title>N9&#45;&gt;N1</title>
<path fill="none" stroke="#94a3b8" stroke-width="1.1" d="M1169.89,-681.54C1179.48,-676.77 1188.49,-670.99 1196.52,-664 1291.37,-581.43 1353.36,-170.03 1368.33,-60.71"/>
<polygon fill="#94a3b8" stroke="#94a3b8" stroke-width="1.1" points="1370.75,-61.14 1369.26,-53.87 1365.89,-60.48 1370.75,-61.14"/>
<text xml:space="preserve" text-anchor="middle" x="1230.58" y="-635.97" font-family="Times,serif" font-size="14.00">uses</text>
</g>
<!-- N10 -->
<g id="node8" class="node">
<title>N10</title>
<path fill="#0f172a" stroke="#334155" d="M1176.52,-426C1176.52,-426 855.35,-426 855.35,-426 849.35,-426 843.35,-420 843.35,-414 843.35,-414 843.35,-402 843.35,-402 843.35,-396 849.35,-390 855.35,-390 855.35,-390 1176.52,-390 1176.52,-390 1182.52,-390 1188.52,-396 1188.52,-402 1188.52,-402 1188.52,-414 1188.52,-414 1188.52,-420 1182.52,-426 1176.52,-426"/>
<text xml:space="preserve" text-anchor="middle" x="1015.94" y="-403.8" font-family="Helvetica,sans-Serif" font-size="14.00" fill="#e2e8f0">Service: services/api_python/src/generated/module...</text>
</g>
<!-- N10&#45;&gt;N1 -->
<g id="edge13" class="edge">
<title>N10&#45;&gt;N1</title>
<path fill="none" stroke="#94a3b8" stroke-width="1.1" d="M1179.6,-389.51C1203.31,-380.44 1225.47,-367.47 1242.63,-349 1322.81,-262.71 1356.47,-119.9 1367.44,-60.84"/>
<polygon fill="#94a3b8" stroke="#94a3b8" stroke-width="1.1" points="1369.84,-61.39 1368.66,-54.06 1365.01,-60.52 1369.84,-61.39"/>
<text xml:space="preserve" text-anchor="middle" x="1230.58" y="-371.91" font-family="Times,serif" font-size="14.00">uses</text>
</g>
<!-- N11 -->
<g id="node9" class="node">
<title>N11</title>
<path fill="#0f172a" stroke="#334155" d="M1176.52,-353C1176.52,-353 855.35,-353 855.35,-353 849.35,-353 843.35,-347 843.35,-341 843.35,-341 843.35,-329 843.35,-329 843.35,-323 849.35,-317 855.35,-317 855.35,-317 1176.52,-317 1176.52,-317 1182.52,-317 1188.52,-323 1188.52,-329 1188.52,-329 1188.52,-341 1188.52,-341 1188.52,-347 1182.52,-353 1176.52,-353"/>
<text xml:space="preserve" text-anchor="middle" x="1015.94" y="-330.8" font-family="Helvetica,sans-Serif" font-size="14.00" fill="#e2e8f0">Service: services/api_python/src/generated/module...</text>
</g>
<!-- N11&#45;&gt;N1 -->
<g id="edge14" class="edge">
<title>N11&#45;&gt;N1</title>
<path fill="none" stroke="#94a3b8" stroke-width="1.1" d="M1173.7,-316.54C1199.19,-307.59 1223.47,-294.64 1242.63,-276 1307.85,-212.56 1347.69,-109.05 1363.72,-60.59"/>
<polygon fill="#94a3b8" stroke="#94a3b8" stroke-width="1.1" points="1366,-61.48 1365.83,-54.06 1361.34,-59.97 1366,-61.48"/>
<text xml:space="preserve" text-anchor="middle" x="1230.58" y="-294.56" font-family="Times,serif" font-size="14.00">uses</text>
</g>
<!-- N12 -->
<g id="node10" class="node">
<title>N12</title>
<path fill="#0f172a" stroke="#334155" d="M1176.52,-280C1176.52,-280 855.35,-280 855.35,-280 849.35,-280 843.35,-274 843.35,-268 843.35,-268 843.35,-256 843.35,-256 843.35,-250 849.35,-244 855.35,-244 855.35,-244 1176.52,-244 1176.52,-244 1182.52,-244 1188.52,-250 1188.52,-256 1188.52,-256 1188.52,-268 1188.52,-268 1188.52,-274 1182.52,-280 1176.52,-280"/>
<text xml:space="preserve" text-anchor="middle" x="1015.94" y="-257.8" font-family="Helvetica,sans-Serif" font-size="14.00" fill="#e2e8f0">Service: services/api_python/src/generated/module...</text>
</g>
<!-- N12&#45;&gt;N1 -->
<g id="edge15" class="edge">
<title>N12&#45;&gt;N1</title>
<path fill="none" stroke="#94a3b8" stroke-width="1.1" d="M1163.09,-243.52C1191.69,-234.71 1219.84,-221.83 1242.63,-203 1293.41,-161.06 1336.15,-95.55 1357.41,-59.66"/>
<polygon fill="#94a3b8" stroke="#94a3b8" stroke-width="1.1" points="1359.36,-61.18 1360.77,-53.9 1355.13,-58.71 1359.36,-61.18"/>
<text xml:space="preserve" text-anchor="middle" x="1230.58" y="-220.28" font-family="Times,serif" font-size="14.00">uses</text>
</g>
<!-- N13 -->
<g id="node11" class="node">
<title>N13</title>
<path fill="#0f172a" stroke="#334155" d="M1176.52,-207C1176.52,-207 855.35,-207 855.35,-207 849.35,-207 843.35,-201 843.35,-195 843.35,-195 843.35,-183 843.35,-183 843.35,-177 849.35,-171 855.35,-171 855.35,-171 1176.52,-171 1176.52,-171 1182.52,-171 1188.52,-177 1188.52,-183 1188.52,-183 1188.52,-195 1188.52,-195 1188.52,-201 1182.52,-207 1176.52,-207"/>
<text xml:space="preserve" text-anchor="middle" x="1015.94" y="-184.8" font-family="Helvetica,sans-Serif" font-size="14.00" fill="#e2e8f0">Service: services/api_python/src/generated/module...</text>
</g>
<!-- N13&#45;&gt;N1 -->
<g id="edge16" class="edge">
<title>N13&#45;&gt;N1</title>
<path fill="none" stroke="#94a3b8" stroke-width="1.1" d="M1133.68,-170.58C1154.88,-165.84 1176.58,-160.03 1196.52,-153 1255.89,-132.08 1314.22,-85.97 1346.38,-57.68"/>
<polygon fill="#94a3b8" stroke="#94a3b8" stroke-width="1.1" points="1347.61,-59.87 1351.21,-53.38 1344.35,-56.21 1347.61,-59.87"/>
<text xml:space="preserve" text-anchor="middle" x="1230.58" y="-144.86" font-family="Times,serif" font-size="14.00">uses</text>
</g>
<!-- N14 -->
<g id="node12" class="node">
<title>N14</title>
<path fill="#0f172a" stroke="#334155" d="M1176.52,-134C1176.52,-134 855.35,-134 855.35,-134 849.35,-134 843.35,-128 843.35,-122 843.35,-122 843.35,-110 843.35,-110 843.35,-104 849.35,-98 855.35,-98 855.35,-98 1176.52,-98 1176.52,-98 1182.52,-98 1188.52,-104 1188.52,-110 1188.52,-110 1188.52,-122 1188.52,-122 1188.52,-128 1182.52,-134 1176.52,-134"/>
<text xml:space="preserve" text-anchor="middle" x="1015.94" y="-111.8" font-family="Helvetica,sans-Serif" font-size="14.00" fill="#e2e8f0">Service: services/api_python/src/generated/module...</text>
</g>
<!-- N14&#45;&gt;N1 -->
<g id="edge17" class="edge">
<title>N14&#45;&gt;N1</title>
<path fill="none" stroke="#94a3b8" stroke-width="1.1" d="M1164.81,-97.53C1175.58,-95.54 1186.24,-93.37 1196.52,-91 1236.8,-81.72 1281.07,-67.3 1315.04,-55.28"/>
<polygon fill="#94a3b8" stroke="#94a3b8" stroke-width="1.1" points="1315.67,-57.66 1321.44,-53 1314.02,-53.05 1315.67,-57.66"/>
<text xml:space="preserve" text-anchor="middle" x="1230.58" y="-87.74" font-family="Times,serif" font-size="14.00">uses</text>
</g>
<!-- N15 -->
<g id="node13" class="node">
<title>N15</title>
<path fill="#0f172a" stroke="#334155" d="M254.99,-235C254.99,-235 53.66,-235 53.66,-235 47.66,-235 41.66,-229 41.66,-223 41.66,-223 41.66,-211 41.66,-211 41.66,-205 47.66,-199 53.66,-199 53.66,-199 254.99,-199 254.99,-199 260.99,-199 266.99,-205 266.99,-211 266.99,-211 266.99,-223 266.99,-223 266.99,-229 260.99,-235 254.99,-235"/>
<text xml:space="preserve" text-anchor="middle" x="154.32" y="-212.8" font-family="Helvetica,sans-Serif" font-size="14.00" fill="#e2e8f0">Service: services/ops_go/main.go</text>
</g>
<!-- N15&#45;&gt;N7 -->
<g id="edge11" class="edge">
<title>N15&#45;&gt;N7</title>
<path fill="none" stroke="#94a3b8" stroke-width="1.1" d="M267.27,-217C304.47,-217 346.88,-217 387.85,-217"/>
<polygon fill="#94a3b8" stroke="#94a3b8" stroke-width="1.1" points="387.63,-219.45 394.63,-217 387.63,-214.55 387.63,-219.45"/>
<text xml:space="preserve" text-anchor="middle" x="344.04" y="-219.8" font-family="Times,serif" font-size="14.00">defines</text>
</g>
<!-- N16 -->
<g id="node14" class="node">
<title>N16</title>
<path fill="#0f172a" stroke="#334155" d="M728.57,-481C728.57,-481 407.43,-481 407.43,-481 401.43,-481 395.43,-475 395.43,-469 395.43,-469 395.43,-457 395.43,-457 395.43,-451 401.43,-445 407.43,-445 407.43,-445 728.57,-445 728.57,-445 734.57,-445 740.57,-451 740.57,-457 740.57,-457 740.57,-469 740.57,-469 740.57,-475 734.57,-481 728.57,-481"/>
<text xml:space="preserve" text-anchor="middle" x="568" y="-458.8" font-family="Helvetica,sans-Serif" font-size="14.00" fill="#e2e8f0">Batch Job: services/worker_ts/src/generated/modul...</text>
</g>
<!-- N17 -->
<g id="node15" class="node">
<title>N17</title>
<path fill="#0f172a" stroke="#334155" d="M280.65,-438C280.65,-438 28,-438 28,-438 22,-438 16,-432 16,-426 16,-426 16,-414 16,-414 16,-408 22,-402 28,-402 28,-402 280.65,-402 280.65,-402 286.65,-402 292.65,-408 292.65,-414 292.65,-414 292.65,-426 292.65,-426 292.65,-432 286.65,-438 280.65,-438"/>
<text xml:space="preserve" text-anchor="middle" x="154.32" y="-415.8" font-family="Helvetica,sans-Serif" font-size="14.00" fill="#e2e8f0">Batch Job: services/worker_ts/src/index.ts</text>
</g>
<!-- N17&#45;&gt;N5 -->
<g id="edge10" class="edge">
<title>N17&#45;&gt;N5</title>
<path fill="none" stroke="#94a3b8" stroke-width="1.1" d="M271.69,-401.51C288.74,-399.32 306.12,-397.38 322.65,-396 345.15,-394.12 368.86,-392.76 392.29,-391.78"/>
<polygon fill="#94a3b8" stroke="#94a3b8" stroke-width="1.1" points="392.35,-394.23 399.25,-391.51 392.16,-389.34 392.35,-394.23"/>
<text xml:space="preserve" text-anchor="middle" x="344.04" y="-398.8" font-family="Times,serif" font-size="14.00">defines</text>
</g>
<!-- N17&#45;&gt;N16 -->
<g id="edge2" class="edge">
<title>N17&#45;&gt;N16</title>
<path fill="none" stroke="#94a3b8" stroke-width="1.1" d="M293.13,-420.08C317.27,-421 342.11,-422.54 365.43,-425 402.31,-428.89 442.55,-435.9 477.3,-442.86"/>
<polygon fill="#94a3b8" stroke="#94a3b8" stroke-width="1.1" points="476.57,-445.21 483.92,-444.2 477.55,-440.41 476.57,-445.21"/>
</g>
<!-- N17&#45;&gt;N16 -->
<g id="edge4" class="edge">
<title>N17&#45;&gt;N16</title>
<path fill="none" stroke="#64748b" stroke-width="1.1" stroke-dasharray="5,2" d="M292.98,-434.38C323.02,-437.52 355.24,-440.88 386.66,-444.16"/>
<polygon fill="#64748b" stroke="#64748b" stroke-width="1.1" points="386.19,-446.58 393.41,-444.87 386.7,-441.7 386.19,-446.58"/>
<text xml:space="preserve" text-anchor="middle" x="344.04" y="-444.3" font-family="Times,serif" font-size="14.00">imports</text>
</g>
<!-- N18 -->
<g id="node16" class="node">
<title>N18</title>
<path fill="#1e293b" stroke="#334155" d="M261.98,-604C261.98,-604 46.67,-604 46.67,-604 40.67,-604 34.67,-598 34.67,-592 34.67,-592 34.67,-580 34.67,-580 34.67,-574 40.67,-568 46.67,-568 46.67,-568 261.98,-568 261.98,-568 267.98,-568 273.98,-574 273.98,-580 273.98,-580 273.98,-592 273.98,-592 273.98,-598 267.98,-604 261.98,-604"/>
<text xml:space="preserve" text-anchor="middle" x="154.32" y="-581.8" font-family="Helvetica,sans-Serif" font-size="14.00" fill="#e2e8f0">Subsystem: services/api_python/src</text>
</g>
<!-- N18&#45;&gt;N8 -->
<g id="edge9" class="edge">
<title>N18&#45;&gt;N8</title>
<path fill="none" stroke="#475569" stroke-width="1.1" stroke-dasharray="1,5" d="M274.4,-586C322.32,-586 377.93,-586 427.72,-586"/>
<polygon fill="#475569" stroke="#475569" stroke-width="1.1" points="427.63,-588.45 434.63,-586 427.63,-583.55 427.63,-588.45"/>
</g>
</g>
</svg>
